<?xml version="1.0" encoding="UTF-8"?>
<svg xmlns="http://www.w3.org/2000/svg" id="a" viewBox="0 0 63.662918 28.247635">
  <path d="M61.309826,2.302314c.932171.932495,1.716473,1.932926,2.353092,2.997401V0h-5.260094c1.029472.627326,1.999485,1.395093,2.90699,2.302314h.000011Z" fill="#4aacaa"/>
  <path d="M10.115234,1.183621c-2.80568,0-5.192753.978499-7.161768,2.934224C.984467,6.074302,0,8.44195,0,11.221696v17.025939h4.555726v-8.918299c1.492394,1.33857,3.345598,2.007578,5.559508,2.007578,2.753827,0,5.102224-.984459,7.045942-2.953552,1.943079-1.96892,2.914896-4.355896,2.914896-7.161664,0-2.779754-.971815-5.147401-2.914894-7.103851-1.943716-1.955725-4.292114-2.934224-7.045944-2.934226ZM13.937436,15.101719c-1.081028,1.068462-2.35509,1.602341-3.822202,1.602341-1.544351,0-2.856985-.533869-3.938029-1.60234-1.081012-1.067746-1.621479-2.360964-1.621479-3.880016,0-1.492497.540474-2.779754,1.621479-3.860686,1.081044-1.081116,2.39367-1.62167,3.938029-1.62167,1.467112,0,2.741175.540554,3.822202,1.62167,1.081028,1.080933,1.621478,2.368189,1.621478,3.860686,0,1.519053-.540459,2.812269-1.621478,3.880015Z" fill="#f26b5e"/>
  <path d="M31.27186,1.183621c-2.805769,0-5.186792.978499-7.142519,2.934224-1.956266,1.956449-2.934128,4.324097-2.934128,7.103851,0,2.805768.977861,5.192752,2.934128,7.161664,1.955725,1.969093,4.33675,2.953552,7.142519,2.953552,2.753828,0,5.108831-.984459,7.065191-2.953552,1.955723-1.96892,2.934212-4.355896,2.934212-7.161664,0-2.779754-.978485-5.147401-2.934208-7.103851-1.956364-1.955725-4.311371-2.934224-7.065191-2.934224h-.000004ZM35.1133,15.101719c-1.068375,1.068462-2.349041,1.602341-3.841434,1.602341-1.519053,0-2.825018-.533869-3.918779-1.60234-1.094213-1.067746-1.640831-2.360964-1.640831-3.880016,0-1.492497.546618-2.779754,1.640831-3.860686,1.093752-1.081116,2.399717-1.62167,3.918779-1.62167,1.492393,0,2.77306.540554,3.841438,1.62167,1.067757,1.080933,1.602261,2.368189,1.602261,3.860686,0,1.519053-.534508,2.812269-1.602261,3.880016,0,0-.000004,0-.000004,0Z" fill="#f26b5e"/>
  <path d="M59.534641,4.117845c-1.94381-1.955725-4.29213-2.934224-7.045864-2.934224-2.805771,0-5.192753.978499-7.16185,2.934224-1.968998,1.956449-2.953465,4.324097-2.953465,7.103851v17.025939h4.555729l.000076-8.918299c1.492313,1.33857,3.345596,2.007578,5.559509,2.007578,2.753723,0,5.102043-.984459,7.045864-2.953552,1.943081-1.96892,2.914879-4.355896,2.914879-7.161664,0-2.779754-.971798-5.147401-2.914879-7.103853ZM56.310982,15.101719c-1.08112,1.068462-2.355186,1.602341-3.822205,1.602341-1.544353,0-2.85709-.533869-3.938194-1.60234-1.08094-1.067746-1.621319-2.360964-1.621319-3.880016,0-1.492497.540371-2.779754,1.621319-3.860686,1.081108-1.081116,2.393837-1.62167,3.938194-1.62167,1.467018,0,2.741077.540554,3.822205,1.62167,1.080929,1.080933,1.621319,2.368189,1.621319,3.860686,0,1.519053-.540386,2.812269-1.621319,3.880015Z" fill="#f26b5e"/>
</svg>
